<svg width="169" height="86" viewBox="0 0 169 86" fill="none" xmlns="http://www.w3.org/2000/svg">
<g clip-path="url(#clip0_2206_228)">
<path fill-rule="evenodd" clip-rule="evenodd" d="M38.0285 55.4029C29.362 67.4991 18.4365 55.767 18.897 42.42C19.2395 32.4998 25.9013 22.0291 34.3773 27.1734L37.4606 16.2296C19.0824 7.05142 9.31402 31.1413 11.4008 47.3676C14.7749 73.5996 33.2261 78.533 43.3834 63.9836L38.0285 55.4029ZM46.9127 34.6969L47.075 71.0099H54.2959L54.3768 34.6969C54.6219 24.1489 47.5479 21.951 43.7483 19.6496L40.6652 30.469L46.9127 34.6969ZM70.0823 16.667C60.8591 22.9681 55.4397 42.0628 62.4092 58.8222L96.729 36.4373C93.1045 16.1472 79.8692 9.98071 70.0825 16.667H70.0823ZM66.9121 45.0804C66.7812 25.333 80.3852 20.1515 86.5465 32.147L66.9121 45.0804ZM85.9384 55.3409C82.039 61.1105 77.4416 61.8569 72.1455 57.5793L68.0888 67.5279C77.2082 74.4846 83.2393 73.7801 91.5363 63.9216L85.9384 55.3409ZM100.299 0.871826L100.38 57.7037C100.358 68.2378 107.461 69.6707 110.927 72.1294L113.767 61.31L107.601 57.0821L107.438 0.871826H100.299ZM116.85 30.3435C108.891 57.9656 129.218 86 146.708 64.5425L141.596 55.8374C134.432 67.8183 118.098 54.1802 123.99 35.8154L116.85 30.3435Z" fill="black"/>
<path fill-rule="evenodd" clip-rule="evenodd" d="M126.546 30.531C135.134 18.4746 149.197 31.4911 144.152 50.553L151.21 55.6518C159.686 22.8962 135.426 2.21101 121.272 21.5772L126.546 30.531ZM50.6854 15.669C53.5306 15.669 55.8373 12.1615 55.8373 7.83466C55.8373 3.50785 53.5306 0 50.6854 0C47.8399 0 45.5332 3.50749 45.5332 7.83466C45.5332 12.1618 47.8399 15.669 50.6854 15.669Z" fill="#01AEF0"/>
</g>
<defs>
<clipPath id="clip0_2206_228">
<rect width="169" height="86" fill="white"/>
</clipPath>
</defs>
</svg>
